HIERARCHY
ROOT joint_Root
{
	OFFSET 0.0 0.0 0.0
	CHANNELS 6 Xposition Yposition Zposition Zrotation Xrotation Yrotation 
	JOINT Hips
	{
		OFFSET 4.5925 91.4895 -427.239
		CHANNELS 6 Xposition Yposition Zposition Zrotation Xrotation Yrotation 
		JOINT Spine
		{
			OFFSET 15.7357 0.0 0.0
			CHANNELS 6 Xposition Yposition Zposition Zrotation Xrotation Yrotation 
			JOINT Chest
			{
				OFFSET 8.98455 -0.406207 0.0
				CHANNELS 6 Xposition Yposition Zposition Zrotation Xrotation Yrotation 
				JOINT Neck
				{
					OFFSET 16.3773 0.0 0.0
					CHANNELS 6 Xposition Yposition Zposition Zrotation Xrotation Yrotation 
					JOINT Head
					{
						OFFSET 6.45672 0.0 0.0
						CHANNELS 6 Xposition Yposition Zposition Zrotation Xrotation Yrotation 
						End Site
						{
							OFFSET 0.0 0.0 0.0
						}
					}
				}
				JOINT Shoulder_L
				{
					OFFSET 12.9942 -0.242716 4.98039
					CHANNELS 6 Xposition Yposition Zposition Zrotation Xrotation Yrotation 
					JOINT UpperArm_L
					{
						OFFSET 5.34809 0.0 0.0
						CHANNELS 6 Xposition Yposition Zposition Zrotation Xrotation Yrotation 
						JOINT LowerArm_L
						{
							OFFSET 24.3286 1.87007e-05 0.0
							CHANNELS 6 Xposition Yposition Zposition Zrotation Xrotation Yrotation 
							JOINT Hand_L
							{
								OFFSET 22.2916 0.0 0.0
								CHANNELS 6 Xposition Yposition Zposition Zrotation Xrotation Yrotation 
								End Site
								{
									OFFSET 0.0 0.0 0.0
								}
							}
						}
					}
				}
				JOINT Shoulder_R
				{
					OFFSET 12.9945 -0.242716 -4.98039
					CHANNELS 6 Xposition Yposition Zposition Zrotation Xrotation Yrotation 
					JOINT UpperArm_R
					{
						OFFSET -5.34813 0.0 0.0
						CHANNELS 6 Xposition Yposition Zposition Zrotation Xrotation Yrotation 
						JOINT LowerArm_R
						{
							OFFSET -24.3289 0.000322201 0.0
							CHANNELS 6 Xposition Yposition Zposition Zrotation Xrotation Yrotation 
							JOINT Hand_R
							{
								OFFSET -22.2915 -0.000108084 0.0
								CHANNELS 6 Xposition Yposition Zposition Zrotation Xrotation Yrotation 
								End Site
								{
									OFFSET 0.0 0.0 0.0
								}
							}
						}
					}
				}
			}
		}
		JOINT UpperLeg_L
		{
			OFFSET -2.19248 -6.46944 0.0
			CHANNELS 6 Xposition Yposition Zposition Zrotation Xrotation Yrotation 
			JOINT LowerLeg_L
			{
				OFFSET 39.0811 0.0 -1.23785e-05
				CHANNELS 6 Xposition Yposition Zposition Zrotation Xrotation Yrotation 
				JOINT Foot_L
				{
					OFFSET 40.9854 0.0 -1.26872e-05
					CHANNELS 6 Xposition Yposition Zposition Zrotation Xrotation Yrotation 
					JOINT Toes_L
					{
						OFFSET 11.7543 0.0 0.0
						CHANNELS 6 Xposition Yposition Zposition Zrotation Xrotation Yrotation 
						End Site
						{
							OFFSET 0.0 0.0 0.0
						}
					}
				}
			}
		}
		JOINT UpperLeg_R
		{
			OFFSET -2.19251 6.46944 0.0
			CHANNELS 6 Xposition Yposition Zposition Zrotation Xrotation Yrotation 
			JOINT LowerLeg_R
			{
				OFFSET -39.0811 -0.00228153 -0.0401928
				CHANNELS 6 Xposition Yposition Zposition Zrotation Xrotation Yrotation 
				JOINT Foot_R
				{
					OFFSET -40.9854 0.0 0.0
					CHANNELS 6 Xposition Yposition Zposition Zrotation Xrotation Yrotation 
					JOINT Toes_R
					{
						OFFSET -11.7543 0.0 0.0
						CHANNELS 6 Xposition Yposition Zposition Zrotation Xrotation Yrotation 
						End Site
						{
							OFFSET 0.0 0.0 0.0
						}
					}
				}
			}
		}
	}
}
MOTION
Frames:	6
Frame Time:	0.0333333
0.000000 0.000000 0.000000 0.000000 0.000000 -0.000000 -1.872840 91.256500 1.335880 89.651700 -2.263430 10.978600 15.735700 0.000005 -0.000001 86.681900 82.473100 -86.902900 8.984550 -0.406207 -0.000000 7.261610 -0.867163 -0.386430 16.377300 -0.000001 -0.000001 19.217400 -1.786600 -1.133240 6.456720 -0.000001 -0.000000 3.098940 -1.438590 5.659760 12.994200 -0.242716 4.980390 -91.345400 4.701310 -74.010700 5.348090 -0.000007 -0.000001 -65.660700 33.507700 -11.520700 24.328600 0.000019 0.000005 10.484500 29.159800 -20.797000 22.291600 -0.000001 0.000005 8.035450 5.279400 0.642329 12.994500 -0.242716 -4.980390 88.536100 10.564100 -82.064600 -5.348130 -0.000001 -0.000004 -64.094400 36.877500 -9.791040 -24.328900 0.000322 -0.000009 2.525260 7.360200 -19.004100 -22.291500 -0.000108 -0.000004 13.203100 5.432470 -4.024230 -2.192480 -6.469440 -0.000000 -172.739000 -15.025200 4.817440 39.081100 -0.000007 -0.000012 -0.177307 0.353786 26.618900 40.985400 -0.000006 -0.000013 0.276358 9.100470 -69.793900 11.754300 -0.000000 0.000003 -0.000203 -0.001879 -16.648400 -2.192510 6.469440 -0.000001 170.820000 26.830500 -172.291000 -39.081100 -0.002282 -0.040193 -0.214502 0.454526 25.604500 -40.985400 0.000008 0.000006 4.258140 18.612100 -70.998800 -11.754300 -0.000006 -0.000006 -0.001146 -0.017456 -17.283000
0.000000 0.000000 0.000000 0.000000 0.000000 -0.000000 -1.915000 91.245900 1.450180 89.672800 -2.242360 10.883600 15.735700 0.000005 -0.000001 86.686600 82.605300 -86.870100 8.984550 -0.406207 -0.000000 6.997930 -0.850641 -0.314533 16.377300 -0.000001 -0.000001 19.212400 -1.834790 -0.998041 6.456720 -0.000001 -0.000000 3.254990 -1.573500 5.942460 12.994200 -0.242716 4.980390 -91.301200 4.536780 -73.978100 5.348090 -0.000007 -0.000001 -65.598900 32.642900 -11.369500 24.328600 0.000019 0.000005 10.450800 29.387600 -20.600200 22.291600 -0.000001 0.000005 8.168480 5.274410 0.778408 12.994500 -0.242716 -4.980390 88.555400 10.422100 -82.064000 -5.348130 -0.000001 -0.000004 -64.081900 36.628500 -9.752880 -24.328900 0.000322 -0.000009 2.495820 7.297880 -18.946300 -22.291500 -0.000108 -0.000004 13.229100 5.430870 -3.968860 -2.192480 -6.469440 -0.000000 -172.762000 -14.951700 4.808490 39.081100 -0.000007 -0.000012 -0.177966 0.355590 26.587400 40.985400 -0.000006 -0.000013 0.227573 9.054510 -69.848100 11.754300 -0.000000 0.000003 -0.000205 -0.001893 -16.648900 -2.192510 6.469440 -0.000001 170.873000 26.728200 -172.312000 -39.081100 -0.002282 -0.040193 -0.218620 0.463428 25.589600 -40.985400 0.000008 0.000006 4.236520 18.478800 -71.076300 -11.754300 -0.000006 -0.000006 -0.001119 -0.017090 -17.268100
0.000000 0.000000 0.000000 0.000000 0.000000 -0.000000 -1.978560 91.235000 1.558360 89.711100 -2.216380 10.818500 15.735700 0.000005 -0.000001 86.712600 82.744200 -86.856600 8.984550 -0.406207 -0.000000 6.721170 -0.828181 -0.239172 16.377300 -0.000001 -0.000001 19.246600 -1.889740 -0.904398 6.456720 -0.000001 -0.000000 3.500000 -1.694430 6.276200 12.994200 -0.242716 4.980390 -91.248500 4.368920 -74.034900 5.348090 -0.000007 -0.000001 -65.544000 32.073300 -11.267200 24.328600 0.000019 0.000005 10.355400 29.311600 -20.468100 22.291600 -0.000001 0.000005 8.381950 5.274050 0.788880 12.994500 -0.242716 -4.980390 88.576500 10.305200 -82.091700 -5.348130 -0.000001 -0.000004 -64.017800 36.408700 -9.727410 -24.328900 0.000322 -0.000009 2.518120 7.396430 -18.868500 -22.291500 -0.000108 -0.000004 13.219800 5.429500 -3.921750 -2.192480 -6.469440 -0.000000 -172.788000 -14.865500 4.840660 39.081100 -0.000007 -0.000012 -0.178769 0.357962 26.538100 40.985400 -0.000006 -0.000013 0.163966 8.998490 -69.893100 11.754300 -0.000000 0.000003 -0.000199 -0.001845 -16.647200 -2.192510 6.469440 -0.000001 170.878000 26.721000 -172.295000 -39.081100 -0.002282 -0.040193 -0.221277 0.468924 25.592100 -40.985400 0.000008 0.000006 4.252900 18.408900 -71.172000 -11.754300 -0.000006 -0.000006 -0.001085 -0.016607 -17.248500
0.000000 0.000000 0.000000 0.000000 0.000000 -0.000000 -2.051990 91.231000 1.649140 89.686700 -2.169290 10.735600 15.735700 0.000005 -0.000001 86.636100 82.873500 -86.721100 8.984550 -0.406207 -0.000000 6.462370 -0.832853 -0.122783 16.377300 -0.000001 -0.000001 19.233100 -1.977010 -0.807653 6.456720 -0.000001 -0.000000 3.737490 -1.844340 6.629800 12.994200 -0.242716 4.980390 -91.199300 4.191720 -74.018300 5.348090 -0.000007 -0.000001 -65.474500 31.718500 -11.333000 24.328600 0.000019 0.000005 10.396400 29.284100 -20.560300 22.291600 -0.000001 0.000005 8.390320 5.273570 0.801528 12.994500 -0.242716 -4.980390 88.590700 10.155800 -82.057000 -5.348130 -0.000001 -0.000004 -63.962100 36.259900 -9.820790 -24.328900 0.000322 -0.000009 2.504250 7.392690 -18.780500 -22.291500 -0.000108 -0.000004 13.286600 5.429040 -3.906220 -2.192480 -6.469440 -0.000000 -172.757000 -14.710300 4.823730 39.081100 -0.000007 -0.000012 -0.180310 0.361625 26.501500 40.985400 -0.000006 -0.000013 0.079482 8.923540 -69.921800 11.754300 -0.000000 0.000003 -0.000216 -0.001979 -16.652000 -2.192510 6.469440 -0.000001 170.953000 26.772100 -172.261000 -39.081100 -0.002282 -0.040193 -0.220086 0.467993 25.517900 -40.985400 0.000008 0.000006 4.276500 18.373200 -71.223300 -11.754300 -0.000006 -0.000006 -0.001140 -0.017379 -17.279900
0.000000 0.000000 0.000000 0.000000 0.000000 -0.000000 -2.122930 91.222200 1.725940 89.717200 -2.118240 10.633100 15.735700 0.000005 -0.000001 86.572300 82.999400 -86.613000 8.984550 -0.406207 -0.000000 6.210400 -0.834219 -0.036060 16.377300 -0.000001 -0.000001 19.235700 -2.101390 -0.669782 6.456720 -0.000001 -0.000000 3.962630 -1.979850 6.924370 12.994200 -0.242716 4.980390 -91.160000 4.061920 -74.047600 5.348090 -0.000007 -0.000001 -65.407800 31.526300 -11.479900 24.328600 0.000019 0.000005 10.500300 29.184900 -20.811300 22.291600 -0.000001 0.000005 8.335870 5.271400 0.860355 12.994500 -0.242716 -4.980390 88.607300 9.998310 -82.028600 -5.348130 -0.000001 -0.000004 -63.973000 35.937800 -9.880550 -24.328900 0.000322 -0.000009 2.510650 7.391250 -18.828500 -22.291500 -0.000108 -0.000004 13.324400 5.428160 -3.875810 -2.192480 -6.469440 -0.000000 -172.803000 -14.554200 4.762100 39.081100 -0.000007 -0.000012 -0.181987 0.365398 26.475900 40.985400 -0.000006 -0.000013 0.001973 8.830960 -69.942200 11.754300 -0.000000 0.000003 -0.000196 -0.001819 -16.646200 -2.192510 6.469440 -0.000001 171.018000 26.737300 -172.326000 -39.081100 -0.002282 -0.040193 -0.222532 0.472848 25.530600 -40.985400 0.000008 0.000006 4.295220 18.267400 -71.299500 -11.754300 -0.000006 -0.000006 -0.001104 -0.016869 -17.259100
0.000000 0.000000 0.000000 0.000000 0.000000 -0.000000 -2.230210 91.222300 1.769530 89.699000 -1.987620 10.567400 15.735700 0.000005 -0.000001 86.404300 83.100200 -86.387300 8.984550 -0.406207 -0.000000 6.007140 -0.863406 0.079167 16.377300 -0.000001 -0.000001 19.207100 -2.219670 -0.532245 6.456720 -0.000001 -0.000000 4.144960 -2.162770 7.215070 12.994200 -0.242716 4.980390 -91.117000 3.920880 -74.085300 5.348090 -0.000007 -0.000001 -65.456100 31.432800 -11.692200 24.328600 0.000019 0.000005 10.518400 28.874700 -21.031400 22.291600 -0.000001 0.000005 8.576660 5.277560 0.692778 12.994500 -0.242716 -4.980390 88.612400 9.871590 -81.957700 -5.348130 -0.000001 -0.000004 -63.971800 35.644100 -9.893790 -24.328900 0.000322 -0.000009 2.497160 7.268490 -19.026600 -22.291500 -0.000108 -0.000004 13.459900 5.429420 -3.919190 -2.192480 -6.469440 -0.000000 -172.763000 -14.325400 4.733890 39.081100 -0.000007 -0.000012 -0.184663 0.371618 26.423800 40.985400 -0.000006 -0.000013 -0.093202 8.815280 -69.932900 11.754300 -0.000000 0.000003 -0.000207 -0.001904 -16.649300 -2.192510 6.469440 -0.000001 171.151000 26.765100 -172.313000 -39.081100 -0.002282 -0.040193 -0.216249 0.461110 25.462000 -40.985400 0.000008 0.000006 4.322300 18.097500 -71.332900 -11.754300 -0.000006 -0.000006 -0.000855 -0.013332 -17.115400
